#tb 0: 33/1000
#tb 1: 1/44100
0,          0,          0,        1,   196608, 0x75d22292
1,          0,          0,     1471,     5884, 0x00000000
0,          1,          1,        1,   196608, 0x75d22292
1,       1471,       1471,     1471,     5884, 0x00000000
0,          2,          2,        1,   196608, 0x75d22292
1,       2942,       2942,     1472,     5888, 0x00000000
0,          3,          3,        1,   196608, 0x75d22292
1,       4414,       4414,     1471,     5884, 0x00000000
0,          4,          4,        1,   196608, 0x75d22292
1,       5885,       5885,     1472,     5888, 0x00000000
0,          5,          5,        1,   196608, 0x75d22292
1,       7357,       7357,     1471,     5884, 0x00000000
0,          6,          6,        1,   196608, 0x75d22292
1,       8828,       8828,     1472,     5888, 0x00000000
0,          7,          7,        1,   196608, 0x75d22292
1,      10300,      10300,     1471,     5884, 0x00000000
0,          8,          8,        1,   196608, 0x75d22292
1,      11771,      11771,     1472,     5888, 0x00000000
0,          9,          9,        1,   196608, 0xd3f66981
1,      13243,      13243,     1471,     5884, 0x00000000
0,         10,         10,        1,   196608, 0xed37c4c3
1,      14714,      14714,     1472,     5888, 0x174b2bd4
0,         11,         11,        1,   196608, 0x6ce01dc4
1,      16186,      16186,     1471,     5884, 0xfab9563d
0,         12,         12,        1,   196608, 0x2874fc9a
1,      17657,      17657,     1472,     5888, 0x0129a4f5
0,         13,         13,        1,   196608, 0x9b65bbc8
1,      19129,      19129,     1471,     5884, 0xf12b15dd
0,         14,         14,        1,   196608, 0x8f9af811
1,      20600,      20600,     1472,     5888, 0x60c8c922
0,         15,         15,        1,   196608, 0x04aeb0b0
1,      22072,      22072,     1471,     5884, 0x85693c81
0,         16,         16,        1,   196608, 0x0df037a1
1,      23543,      23543,     1472,     5888, 0xcefcf0e0
0,         17,         17,        1,   196608, 0xa32c5515
1,      25015,      25015,     1471,     5884, 0x243974ff
0,         18,         18,        1,   196608, 0xf3b11a1b
1,      26486,      26486,     1471,     5884, 0x9101b901
0,         19,         19,        1,   196608, 0xaf945190
1,      27957,      27957,     1472,     5888, 0xe3c68cb9
0,         20,         20,        1,   196608, 0xabee8b24
1,      29429,      29429,     1471,     5884, 0x80f2ff5f
0,         21,         21,        1,   196608, 0x1d7b3df0
1,      30900,      30900,     1472,     5888, 0xfc2d19dc
0,         22,         22,        1,   196608, 0x1347d787
1,      32372,      32372,     1471,     5884, 0xb6e0af21
0,         23,         23,        1,   196608, 0x654c4a9b
1,      33843,      33843,     1472,     5888, 0x476e74ff
0,         24,         24,        1,   196608, 0xa2a6596a
1,      35315,      35315,     1471,     5884, 0x3921bc7f
0,         25,         25,        1,   196608, 0x50d04d8e
1,      36786,      36786,     1472,     5888, 0x44180a3f
0,         26,         26,        1,   196608, 0x4f9f9352
1,      38258,      38258,     1471,     5884, 0x01b5a119
0,         27,         27,        1,   196608, 0xbb358281
1,      39729,      39729,     1472,     5888, 0xdd7ad621
0,         28,         28,        1,   196608, 0xcd91a50a
1,      41201,      41201,     1471,     5884, 0xadabe898
0,         29,         29,        1,   196608, 0xb665bb76
1,      42672,      42672,     1472,     5888, 0x2141ff8e
0,         30,         30,        1,   196608, 0xec924ee7
1,      44144,      44144,     1471,     5884, 0xfb5118fb
0,         31,         31,        1,   196608, 0x9c4aa4ad
1,      45615,      45615,     1472,     5888, 0x06d31461
0,         32,         32,        1,   196608, 0x27ccdf86
1,      47087,      47087,     1471,     5884, 0x80ce34c1
0,         33,         33,        1,   196608, 0x93778cc8
1,      48558,      48558,     1472,     5888, 0x72bf392f
0,         34,         34,        1,   196608, 0x3d68e826
1,      50030,      50030,     1471,     5884, 0x9d9237cf
0,         35,         35,        1,   196608, 0x9240b751
1,      51501,      51501,     1471,     5884, 0xf5c9ce23
0,         36,         36,        1,   196608, 0xd77ec46b
1,      52972,      52972,     1472,     5888, 0x12a05dc5
0,         37,         37,        1,   196608, 0x4a303ef1
1,      54444,      54444,     1471,     5884, 0xd3ed5d4b
0,         38,         38,        1,   196608, 0x2508bacf
1,      55915,      55915,     1472,     5888, 0x06557401
0,         39,         39,        1,   196608, 0xb74cb5bf
1,      57387,      57387,     1471,     5884, 0x53d81662
0,         40,         40,        1,   196608, 0x9c4a9719
1,      58858,      58858,     1472,     5888, 0xd7e0d98d
0,         41,         41,        1,   196608, 0xc34a7924
1,      60330,      60330,     1471,     5884, 0xdf00752e
0,         42,         42,        1,   196608, 0x9d8428bd
1,      61801,      61801,     1472,     5888, 0x82f1d7a9
0,         43,         43,        1,   196608, 0x019eebf7
1,      63273,      63273,     1471,     5884, 0x9cb3aba9
0,         44,         44,        1,   196608, 0x36e58d6b
1,      64744,      64744,     1472,     5888, 0xd6f98e91
0,         45,         45,        1,   196608, 0xc7038ceb
1,      66216,      66216,     1471,     5884, 0xaa7f7c09
0,         46,         46,        1,   196608, 0xb041fd50
1,      67687,      67687,     1472,     5888, 0xb97a82a7
0,         47,         47,        1,   196608, 0x76934674
1,      69159,      69159,     1471,     5884, 0x375a3d53
0,         48,         48,        1,   196608, 0x22afa88b
1,      70630,      70630,     1472,     5888, 0xa0a460cb
0,         49,         49,        1,   196608, 0x22158960
1,      72102,      72102,     1471,     5884, 0xe05efbab
0,         50,         50,        1,   196608, 0x75ab0895
1,      73573,      73573,     1472,     5888, 0x95e151f0
0,         51,         51,        1,   196608, 0xcaab6c6d
1,      75045,      75045,     1471,     5884, 0x44ac688d
0,         52,         52,        1,   196608, 0xe64d8b91
1,      76516,      76516,     1471,     5884, 0xfc6d929f
0,         53,         53,        1,   196608, 0x1e8aa17a
1,      77987,      77987,     1472,     5888, 0x6406c5f1
0,         54,         54,        1,   196608, 0x7dd94fdb
1,      79459,      79459,     1471,     5884, 0x4ee9e48c
0,         55,         55,        1,   196608, 0xab74566c
1,      80930,      80930,     1472,     5888, 0xd55d43d0
0,         56,         56,        1,   196608, 0xec962966
1,      82402,      82402,     1471,     5884, 0xcae69baf
0,         57,         57,        1,   196608, 0xf5bfd751
1,      83873,      83873,     1472,     5888, 0x4c01f1f5
0,         58,         58,        1,   196608, 0xc7f46e0e
1,      85345,      85345,     1471,     5884, 0xf7d6dab6
0,         59,         59,        1,   196608, 0xe641f676
1,      86816,      86816,     1472,     5888, 0x1affdeb5
0,         60,         60,        1,   196608, 0xea7c7b75
1,      88288,      88288,     1471,     5884, 0x6db72487
0,         61,         61,        1,   196608, 0x69120371
1,      89759,      89759,     1472,     5888, 0x4f344e49
0,         62,         62,        1,   196608, 0xb2319175
1,      91231,      91231,     1471,     5884, 0x2df3827b
0,         63,         63,        1,   196608, 0xd2d73b56
1,      92702,      92702,     1472,     5888, 0x1d1fc283
0,         64,         64,        1,   196608, 0x74aafac0
1,      94174,      94174,     1471,     5884, 0x22eb1dd5
0,         65,         65,        1,   196608, 0x15e8ddbc
1,      95645,      95645,     1472,     5888, 0x734e7093
0,         66,         66,        1,   196608, 0xd4e2c90c
1,      97117,      97117,     1471,     5884, 0x357c9531
0,         67,         67,        1,   196608, 0x86eaf31c
1,      98588,      98588,     1472,     5888, 0x108c102d
0,         68,         68,        1,   196608, 0x8004291b
1,     100060,     100060,     1471,     5884, 0x96ad26c6
0,         69,         69,        1,   196608, 0xbbf6954a
1,     101531,     101531,     1472,     5888, 0x7bea1996
0,         70,         70,        1,   196608, 0x2f24f0e1
1,     103003,     103003,     1471,     5884, 0x124a1f8e
0,         71,         71,        1,   196608, 0x59d56dfb
1,     104474,     104474,     1471,     5884, 0x08d272fb
0,         72,         72,        1,   196608, 0x1377c9cb
1,     105945,     105945,     1472,     5888, 0x88832c6b
0,         73,         73,        1,   196608, 0x07582cc3
1,     107417,     107417,     1471,     5884, 0xedf41493
0,         74,         74,        1,   196608, 0xa5a853fc
1,     108888,     108888,     1472,     5888, 0xc4f226d7
0,         75,         75,        1,   196608, 0x3b01856a
1,     110360,     110360,     1471,     5884, 0x97730397
0,         76,         76,        1,   196608, 0x64927496
1,     111831,     111831,     1472,     5888, 0xbc3540e9
0,         77,         77,        1,   196608, 0xf24c6f8a
1,     113303,     113303,     1471,     5884, 0x8adfa135
0,         78,         78,        1,   196608, 0xc92c3c46
1,     114774,     114774,     1472,     5888, 0x6d4be121
0,         79,         79,        1,   196608, 0xa50d07fb
1,     116246,     116246,     1471,     5884, 0xc3daea85
0,         80,         80,        1,   196608, 0xb1d4a092
1,     117717,     117717,     1472,     5888, 0x5498e9f0
0,         81,         81,        1,   196608, 0x20c5526b
1,     119189,     119189,     1471,     5884, 0xa0eb691f
0,         82,         82,        1,   196608, 0x6127fbbd
1,     120660,     120660,     1472,     5888, 0x775c7c59
0,         83,         83,        1,   196608, 0xc168a747
1,     122132,     122132,     1471,     5884, 0x9f108fd1
0,         84,         84,        1,   196608, 0x9c0d3241
1,     123603,     123603,     1472,     5888, 0x72d53062
0,         85,         85,        1,   196608, 0x5466dd21
1,     125075,     125075,     1471,     5884, 0x13a93faa
0,         86,         86,        1,   196608, 0x5bba67cc
1,     126546,     126546,     1472,     5888, 0x64773c8e
0,         87,         87,        1,   196608, 0x4c1a1c18
1,     128018,     128018,     1471,     5884, 0xaf696999
0,         88,         88,        1,   196608, 0x22c0a537
1,     129489,     129489,     1471,     5884, 0xf45e7e81
0,         89,         89,        1,   196608, 0x4ffc5ea6
1,     130960,     130960,     1472,     5888, 0x00000000
0,         90,         90,        1,   196608, 0x7e8e2395
1,     132432,     132432,     1471,     5884, 0x00000000
0,         91,         91,        1,   196608, 0xa3b6f198
0,         92,         92,        1,   196608, 0xf6aac4d1
1,     133903,     133903,     1472,     5888, 0x00000000
0,         93,         93,        1,   196608, 0x1a6ea9ee
1,     135375,     135375,     1471,     5884, 0x00000000
0,         94,         94,        1,   196608, 0xfd729443
1,     136846,     136846,     1472,     5888, 0x00000000
0,         95,         95,        1,   196608, 0xc6a69012
1,     138318,     138318,     1471,     5884, 0x00000000
0,         96,         96,        1,   196608, 0x576f9270
1,     139789,     139789,     1472,     5888, 0x00000000
0,         97,         97,        1,   196608, 0x0d539fe5
1,     141261,     141261,     1471,     5884, 0x00000000
0,         98,         98,        1,   196608, 0x191db7d6
1,     142732,     142732,     1472,     5888, 0x00000000
0,         99,         99,        1,   196608, 0x80cddedd
1,     144204,     144204,     1471,     5884, 0x00000000
0,        100,        100,        1,   196608, 0xccf5fd39
1,     145675,     145675,     1472,     5888, 0x00000000
0,        101,        101,        1,   196608, 0x521d33b6
1,     147147,     147147,     1471,     5884, 0x00000000
0,        102,        102,        1,   196608, 0xb75e59ee
1,     148618,     148618,     1472,     5888, 0x00000000
0,        103,        103,        1,   196608, 0xbba68972
1,     150090,     150090,     1471,     5884, 0x00000000
0,        104,        104,        1,   196608, 0x368fb86a
1,     151561,     151561,     1472,     5888, 0x00000000
0,        105,        105,        1,   196608, 0x99e6e94a
1,     153033,     153033,     1471,     5884, 0x00000000
0,        106,        106,        1,   196608, 0xe4021296
1,     154504,     154504,     1471,     5884, 0x00000000
0,        107,        107,        1,   196608, 0xbc993b10
1,     155975,     155975,     1472,     5888, 0x00000000
0,        108,        108,        1,   196608, 0xf2765d22
1,     157447,     157447,     1471,     5884, 0x00000000
0,        109,        109,        1,   196608, 0xc6257db5
1,     158918,     158918,     1472,     5888, 0x00000000
0,        110,        110,        1,   196608, 0xa832782f
1,     160390,     160390,     1471,     5884, 0x00000000
0,        111,        111,        1,   196608, 0xa832782f
1,     161861,     161861,     1472,     5888, 0x00000000
0,        112,        112,        1,   196608, 0xa832782f
1,     163333,     163333,     1471,     5884, 0x00000000
0,        113,        113,        1,   196608, 0xa832782f
1,     164804,     164804,     1472,     5888, 0x00000000
0,        114,        114,        1,   196608, 0xa832782f
1,     166276,     166276,     1471,     5884, 0x00000000
0,        115,        115,        1,   196608, 0xa832782f
1,     167747,     167747,     1472,     5888, 0x00000000
0,        116,        116,        1,   196608, 0xa832782f
1,     169219,     169219,     1471,     5884, 0x00000000
0,        117,        117,        1,   196608, 0xa832782f
1,     170690,     170690,     1472,     5888, 0x00000000
0,        118,        118,        1,   196608, 0xa832782f
1,     172162,     172162,     1471,     5884, 0xfe4b2bd4
0,        119,        119,        1,   196608, 0xa832782f
1,     173633,     173633,     1472,     5888, 0x00000000
0,        120,        120,        1,   196608, 0xa832782f
1,     175105,     175105,     1471,     5884, 0x00000000
0,        121,        121,        1,   196608, 0xa832782f
1,     176576,     176576,     1472,     5888, 0x00000000
0,        122,        122,        1,   196608, 0xa832782f
1,     178048,     178048,     1471,     5884, 0x00000000
0,        123,        123,        1,   196608, 0xa832782f
1,     179519,     179519,     1471,     5884, 0x00000000
0,        124,        124,        1,   196608, 0xa832782f
1,     180990,     180990,     1472,     5888, 0x00000000
0,        125,        125,        1,   196608, 0xa832782f
1,     182462,     182462,     1471,     5884, 0x00000000
0,        126,        126,        1,   196608, 0xa832782f
1,     183933,     183933,     1472,     5888, 0x00000000
0,        127,        127,        1,   196608, 0xa832782f
1,     185405,     185405,     1471,     5884, 0x00000000
0,        128,        128,        1,   196608, 0xa832782f
1,     186876,     186876,     1472,     5888, 0x00000000
0,        129,        129,        1,   196608, 0xa832782f
1,     188348,     188348,     1471,     5884, 0x00000000
0,        130,        130,        1,   196608, 0xa832782f
1,     189819,     189819,     1472,     5888, 0x00000000
0,        131,        131,        1,   196608, 0xa832782f
1,     191291,     191291,     1471,     5884, 0x00000000
0,        132,        132,        1,   196608, 0xa832782f
1,     192762,     192762,     1472,     5888, 0x00000000
0,        133,        133,        1,   196608, 0xa832782f
1,     194234,     194234,     1471,     5884, 0x00000000
0,        134,        134,        1,   196608, 0xa832782f
1,     195705,     195705,     1472,     5888, 0x00000000
0,        135,        135,        1,   196608, 0xa832782f
1,     197177,     197177,     1471,     5884, 0x00000000
0,        136,        136,        1,   196608, 0xa832782f
1,     198648,     198648,     1472,     5888, 0x00000000
0,        137,        137,        1,   196608, 0xa832782f
1,     200120,     200120,     1471,     5884, 0x00000000
0,        138,        138,        1,   196608, 0xa832782f
1,     201591,     201591,     1472,     5888, 0x00000000
0,        139,        139,        1,   196608, 0xa832782f
1,     203063,     203063,     1471,     5884, 0x00000000
0,        140,        140,        1,   196608, 0xa832782f
1,     204534,     204534,     1472,     5888, 0x00000000
0,        141,        141,        1,   196608, 0xa832782f
1,     206006,     206006,     1471,     5884, 0x00000000
0,        142,        142,        1,   196608, 0xa832782f
1,     207477,     207477,     1262,     5048, 0x00000000
0,        143,        143,        1,   196608, 0xa832782f
0,        144,        144,        1,   196608, 0xa832782f
0,        145,        145,        1,   196608, 0xa832782f
0,        146,        146,        1,   196608, 0xa832782f
0,        147,        147,        1,   196608, 0xa832782f
0,        148,        148,        1,   196608, 0xa832782f
0,        149,        149,        1,   196608, 0xa832782f
